<svg width="32" height="23" viewBox="0 0 32 23" fill="none" xmlns="http://www.w3.org/2000/svg">
<path d="M18.9573 21C16.4073 21 14.185 20.1708 12.2902 18.5125C10.3955 16.8558 9.29877 14.7683 9 12.25H10.2691C10.6106 14.4 11.5944 16.1875 13.2204 17.6125C14.8482 19.0375 16.7605 19.75 18.9573 19.75C21.4052 19.75 23.4815 18.9012 25.1863 17.2037C26.891 15.5062 27.7438 13.4383 27.7447 11C27.7447 8.5625 26.8919 6.49458 25.1863 4.79625C23.4807 3.09792 21.4044 2.24917 18.9573 2.25C17.6585 2.25 16.4374 2.52333 15.2943 3.07C14.1519 3.61667 13.1434 4.36917 12.2689 5.3275H15.3834V6.5775H10.17V1.385H11.4253V4.37C12.3961 3.30917 13.5334 2.4825 14.8373 1.89C16.1412 1.29667 17.5145 1 18.9573 1C20.3491 1 21.6538 1.26083 22.8715 1.7825C24.0891 2.30417 25.1528 3.01792 26.0625 3.92375C26.9722 4.82958 27.6894 5.88917 28.2142 7.1025C28.7381 8.315 29 9.61417 29 11C29 12.3858 28.7381 13.685 28.2142 14.8975C27.6903 16.11 26.9731 17.1696 26.0625 18.0762C25.1528 18.9821 24.0891 19.6958 22.8715 20.2175C21.6538 20.7392 20.3491 21 18.9573 21ZM22.9782 15.8175L18.4012 11.26V4.75H19.6565V10.74L23.8669 14.9325L22.9782 15.8175Z" fill="#F8F8F8"/>
</svg>
