<svg width="18" height="19" viewBox="0 0 18 19" fill="none" xmlns="http://www.w3.org/2000/svg">
<path d="M7.596 16.5959C7.44 16.5959 7.302 16.5569 7.182 16.4789C7.062 16.4009 6.975 16.2929 6.921 16.1549C6.867 16.0169 6.855 15.8759 6.885 15.7319C6.915 15.5879 6.978 15.4679 7.074 15.3719L12.654 9.77395L7.074 4.19395C7.002 4.12195 6.948 4.04095 6.912 3.95095C6.876 3.86095 6.858 3.76795 6.858 3.67195C6.858 3.57595 6.876 3.48595 6.912 3.40195C6.948 3.31795 7.002 3.23995 7.074 3.16795C7.146 3.09595 7.227 3.04195 7.317 3.00595C7.407 2.96995 7.491 2.95195 7.569 2.95195C7.647 2.95195 7.746 2.97595 7.866 3.02395C7.95 3.05995 8.028 3.11395 8.1 3.18595L14.184 9.26995C14.328 9.41395 14.4 9.58495 14.4 9.78295C14.4 9.98095 14.328 10.1519 14.184 10.2959L8.1 16.3799C7.956 16.5239 7.788 16.5959 7.596 16.5959ZM13.68 10.4939H0.72C0.516 10.4939 0.345 10.4249 0.207 10.2869C0.069 10.1489 0 9.98095 0 9.78295C0 9.58495 0.072 9.41395 0.216 9.26995C0.36 9.12595 0.528 9.05395 0.72 9.05395H13.68C13.872 9.05395 14.04 9.12595 14.184 9.26995C14.328 9.41395 14.4 9.58495 14.4 9.78295C14.4 9.98095 14.331 10.1489 14.193 10.2869C14.055 10.4249 13.884 10.4939 13.68 10.4939Z" fill="#0E0E0E"/>
</svg>
