<svg width="137" height="137" viewBox="0 0 137 137" fill="none" xmlns="http://www.w3.org/2000/svg">
<path d="M68.5 88.9187L48.3039 68.7169L52.3397 64.6126L65.6458 77.9188V28.5417H71.3541V77.9188L84.6546 64.6183L88.6961 68.7169L68.5 88.9187ZM37.7606 108.458C35.1348 108.458 32.9428 107.579 31.1846 105.821C29.4226 104.059 28.5416 101.865 28.5416 99.2394V85.4081H34.25V99.2394C34.25 100.115 34.6153 100.92 35.346 101.654C36.0804 102.385 36.8853 102.75 37.7606 102.75H99.2394C100.115 102.75 100.92 102.385 101.654 101.654C102.385 100.92 102.75 100.115 102.75 99.2394V85.4081H108.458V99.2394C108.458 101.865 107.579 104.057 105.821 105.815C104.059 107.577 101.865 108.458 99.2394 108.458H37.7606Z" fill="#8D8D8D"/>
</svg>
